<?xml version="1.0" standalone="no"?>
<!DOCTYPE svg PUBLIC "-//W3C//DTD SVG 20010904//EN"
 "http://www.w3.org/TR/2001/REC-SVG-20010904/DTD/svg10.dtd">
<svg version="1.0" xmlns="http://www.w3.org/2000/svg"
 width="500.000000pt" height="500.000000pt" viewBox="0 0 500.000000 500.000000"
 preserveAspectRatio="xMidYMid meet">
<metadata>
Created by potrace 1.14, written by Peter Selinger 2001-2017
</metadata>
<g transform="translate(0.000000,500.000000) scale(0.100000,-0.100000)"
fill="#000000" stroke="none">
<path d="M0 2500 l0 -2500 2500 0 2500 0 0 2500 0 2500 -2500 0 -2500 0 0
-2500z m3162 982 c36 -24 261 -322 262 -347 1 -20 -6 -20 -351 -23 l-353 -2
-2 -873 -3 -872 -179 -3 c-123 -2 -183 1 -192 9 -12 10 -14 153 -14 875 l0
864 -290 0 c-276 0 -290 1 -300 19 -6 11 -10 87 -10 176 0 89 4 165 10 176 10
18 29 19 703 19 644 0 694 -1 719 -18z"/>
</g>
</svg>
